{
    "asset": {
        "version": "2.0"
    },
    "scenes": [
        {
            "nodes": [
                0
            ]
        }
    ],
    "nodes": [
        {
            "mesh": 0
        }
    ],
    "buffers": [
        {
            "byteLength": 49162272,
            "uri": "HarbourMolarsTEST.bin"
        }
    ],
    "bufferViews": [
        {
            "buffer": 0,
            "byteOffset": 0,
            "byteLength": 49162272,
            "byteStride": 16
        },
        {
            "buffer": 0,
            "byteOffset": 12,
            "byteLength": 49162260,
            "byteStride": 16
        }
    ],
    "accessors": [
        {
            "bufferView": 0,
            "byteOffset": 0,
            "componentType": 5126,
            "count": 3072642,
            "type": "VEC3",
            "max": [
                3.2469310760498047,
                3.373725414276123,
                6.436559200286865
            ],
            "min": [
                -7.996825218200684,
                -6.508627891540527,
                -5.71151065826416
            ]
        },
        {
            "bufferView": 1,
            "byteOffset": 0,
            "componentType": 5121,
            "count": 3072642,
            "type": "VEC3",
            "normalized": true
        }
    ],
    "meshes": [
        {
            "primitives": [
                {
                    "attributes": {
                        "POSITION": 0,
                        "COLOR_0": 1
                    },
                    "mode": 0
                }
            ]
        }
    ]
}